<svg width="129" height="38" viewBox="0 0 129 38" fill="none" xmlns="http://www.w3.org/2000/svg">
<path d="M36.375 15.875V14.75C36.375 12.2891 34.3359 10.25 31.875 10.25C29.3789 10.25 27.375 12.2891 27.375 14.75V15.875H24V25.4375C24 27.0195 25.2305 28.25 26.8125 28.25H36.9375C38.4844 28.25 39.75 27.0195 39.75 25.4375V15.875H36.375ZM29.625 14.75C29.625 13.5195 30.6094 12.5 31.875 12.5C33.1055 12.5 34.125 13.5195 34.125 14.75V15.875H29.625V14.75ZM35.25 18.9688C34.7578 18.9688 34.4062 18.6172 34.4062 18.125C34.4062 17.668 34.7578 17.2812 35.25 17.2812C35.707 17.2812 36.0938 17.668 36.0938 18.125C36.0938 18.6172 35.707 18.9688 35.25 18.9688ZM28.5 18.9688C28.0078 18.9688 27.6562 18.6172 27.6562 18.125C27.6562 17.668 28.0078 17.2812 28.5 17.2812C28.957 17.2812 29.3438 17.668 29.3438 18.125C29.3438 18.6172 28.957 18.9688 28.5 18.9688Z" fill="#757575"/>
<path d="M51.35 25H54.158V21.112H55.544C58.01 21.112 60.152 19.888 60.152 17.08C60.152 14.2 58.046 13.282 55.472 13.282H51.35V25ZM54.158 18.898V15.496H55.31C56.678 15.496 57.416 15.91 57.416 17.08C57.416 18.25 56.768 18.898 55.382 18.898H54.158ZM61.927 25H64.699V16.054H61.927V25ZM63.313 14.794C64.231 14.794 64.879 14.236 64.879 13.354C64.879 12.49 64.231 11.932 63.313 11.932C62.395 11.932 61.747 12.49 61.747 13.354C61.747 14.236 62.395 14.794 63.313 14.794ZM70.9139 25.216C71.8679 25.216 73.0019 24.946 73.8659 24.154L72.7859 22.408C72.3359 22.75 71.8319 22.966 71.2379 22.966C70.1399 22.966 69.3119 22.012 69.3119 20.518C69.3119 19.042 70.0859 18.07 71.3279 18.07C71.7239 18.07 72.0659 18.196 72.4799 18.502L73.7759 16.792C73.1099 16.216 72.2639 15.838 71.1659 15.838C68.6819 15.838 66.4679 17.548 66.4679 20.518C66.4679 23.488 68.3939 25.216 70.9139 25.216ZM75.4094 25H78.1634V22.786L79.1894 21.598L81.1334 25H84.1574L80.8274 19.78L83.9414 16.054H80.8814L78.2174 19.438H78.1634V12.418H75.4094V25ZM87.7422 25.216C88.9482 25.216 89.7942 24.658 90.5322 23.776H90.6042L90.8022 25H93.0702V16.054H90.2802V21.922C89.7942 22.588 89.4162 22.84 88.7862 22.84C88.0662 22.84 87.7422 22.48 87.7422 21.238V16.054H84.9522V21.598C84.9522 23.83 85.7802 25.216 87.7422 25.216ZM95.343 28.276H98.115V25.684L98.025 24.298C98.655 24.892 99.357 25.216 100.131 25.216C102.057 25.216 103.875 23.452 103.875 20.374C103.875 17.62 102.543 15.838 100.383 15.838C99.465 15.838 98.565 16.288 97.881 16.918H97.809L97.611 16.054H95.343V28.276ZM99.465 22.93C99.033 22.93 98.565 22.804 98.115 22.408V18.862C98.601 18.34 99.033 18.106 99.555 18.106C100.545 18.106 101.013 18.844 101.013 20.41C101.013 22.228 100.329 22.93 99.465 22.93Z" fill="#757575"/>
</svg>
