<svg width="16" height="16" viewBox="0 0 16 16" fill="none" xmlns="http://www.w3.org/2000/svg">
<path d="M8 0.25C3.71875 0.25 0.25 3.75 0.25 8C0.25 12.2812 3.71875 15.75 8 15.75C12.25 15.75 15.75 12.2812 15.75 8C15.75 3.75 12.25 0.25 8 0.25ZM8 14.25C4.53125 14.25 1.75 11.4688 1.75 8C1.75 4.5625 4.53125 1.75 8 1.75C11.4375 1.75 14.25 4.5625 14.25 8C14.25 11.4688 11.4375 14.25 8 14.25ZM11.3438 11.0938C11.4062 11.0312 11.4375 10.9375 11.4375 10.8438C11.4375 10.75 11.4062 10.6875 11.375 10.625L10.75 9.78125C10.625 9.59375 10.375 9.5625 10.1875 9.71875C9.90625 9.96875 9.15625 10.5625 8.15625 10.5625C6.53125 10.5625 5.6875 9.25 5.6875 7.96875C5.6875 6.5625 6.625 5.4375 8.125 5.4375C9.0625 5.4375 9.78125 5.9375 10.0625 6.15625C10.2188 6.28125 10.5 6.25 10.5938 6.0625L11.1875 5.1875C11.2188 5.125 11.25 5.0625 11.25 4.96875C11.25 4.875 11.1875 4.78125 11.125 4.71875C10.8438 4.4375 9.8125 3.625 8.0625 3.625C5.59375 3.625 3.6875 5.5 3.6875 7.96875C3.6875 10.4688 5.5 12.4062 8.09375 12.4062C9.90625 12.4062 11.0312 11.4062 11.3438 11.0938Z" fill="#F5F5F5"/>
</svg>
