<svg width="15" height="19" viewBox="0 0 15 19" fill="none" xmlns="http://www.w3.org/2000/svg">
<path d="M6.79688 17.8984C7.11328 18.3906 7.85156 18.3906 8.16797 17.8984C13.3008 10.5156 14.25 9.74219 14.25 7C14.25 3.27344 11.2266 0.25 7.5 0.25C3.73828 0.25 0.75 3.27344 0.75 7C0.75 9.74219 1.66406 10.5156 6.79688 17.8984ZM7.5 9.8125C5.91797 9.8125 4.6875 8.58203 4.6875 7C4.6875 5.45312 5.91797 4.1875 7.5 4.1875C9.04688 4.1875 10.3125 5.45312 10.3125 7C10.3125 8.58203 9.04688 9.8125 7.5 9.8125Z" fill="#FFB30E"/>
</svg>
