<svg width="136" height="136" viewBox="0 0 136 136" fill="none" xmlns="http://www.w3.org/2000/svg">
<g id="Icon">
<path id="Vector" d="M115 68.5C115 73.9528 114.169 79.2149 112.622 84.1582C112.454 84.71 112.274 85.2553 112.08 85.7972C111.469 87.5645 110.76 89.2857 109.965 90.9609C109.298 92.3735 108.568 93.7496 107.777 95.0865C106.2 97.7702 104.394 100.299 102.377 102.648C100.268 105.108 97.9358 107.372 95.4132 109.408C86.4098 116.658 74.9623 121 62.5 121C33.5056 121 10 97.4944 10 68.5C10 39.5056 33.5051 16 62.4997 16C91.4944 16 115 39.5056 115 68.5Z" fill="url(#paint0_linear_0_298)"/>
<path id="Vector_2" d="M62.7231 33C60.667 33 59 63.0233 59 65.1003C59 66.4237 59.6784 67.5856 60.7016 68.2557L99.0567 107C105.527 100.709 110.399 92.7528 113 83.8145C104.435 75.2258 62.7231 33 62.7231 33Z" fill="url(#paint1_linear_0_298)"/>
<path id="Vector_3" d="M63 72C64.6569 72 66 70.6569 66 69C66 67.3431 64.6569 66 63 66C61.3431 66 60 67.3431 60 69C60 70.6569 61.3431 72 63 72Z" fill="url(#paint2_linear_0_298)"/>
<path id="Vector_4" d="M62.5003 27C62.0861 27 61.7111 27.1439 61.4395 27.3767C61.1682 27.6092 61 27.9307 61 28.286V37.7143C61 37.9804 61.0943 38.2278 61.2561 38.433C61.3637 38.5699 61.5015 38.688 61.6612 38.7802C61.7409 38.8266 61.8263 38.8663 61.9161 38.8989C62.0955 38.9638 62.2929 39 62.4997 39C62.9139 39 63.2889 38.8561 63.5605 38.6233C63.8318 38.3905 64 38.0693 64 37.714V28.2857C64.0003 27.5756 63.3285 27 62.5003 27Z" fill="url(#paint3_linear_0_298)"/>
<path id="Vector_5" d="M62.5002 98C61.6716 98 61 98.6239 61 99.3929V109.607C61 109.74 61.0262 109.866 61.0636 109.987C61.2424 110.57 61.8146 111 62.4998 111C62.707 111 62.9044 110.961 63.0835 110.89C63.6219 110.679 64 110.184 64 109.607V99.3926C64.0003 98.6236 63.3284 98 62.5002 98Z" fill="url(#paint4_linear_0_298)"/>
<path id="Vector_6" d="M103.607 67H93.3929C92.6236 67 92 67.6715 92 68.5C92 69.3285 92.6236 70 93.3929 70H103.607C104.376 70 105 69.3285 105 68.5C105 67.6715 104.376 67 103.607 67Z" fill="url(#paint5_linear_0_298)"/>
<path id="Vector_7" d="M33 68.4999C33 68.1894 32.9192 67.9005 32.7805 67.6611C32.6882 67.5015 32.5701 67.3637 32.4333 67.2561C32.2281 67.0943 31.9807 67 31.7143 67H22.2859C21.9309 67 21.6095 67.1679 21.3767 67.4394C21.1442 67.711 21 68.0857 21 68.5001C21 69.3285 21.5756 70 22.2857 70H31.7138C32.0688 70 32.3903 69.8321 32.6231 69.5606C32.8558 69.289 33 68.9143 33 68.4999Z" fill="url(#paint6_linear_0_298)"/>
<path id="Vector_8" d="M85.376 47.6332L92.5924 41.1383C93.1359 40.6492 93.1359 39.8561 92.5924 39.3669C92.0489 38.8776 91.1677 38.8778 90.6242 39.3669L83.4078 45.8618C82.8641 46.3512 82.8641 47.144 83.4078 47.6332C83.9513 48.1223 84.8325 48.1223 85.376 47.6332Z" fill="url(#paint7_linear_0_298)"/>
<path id="Vector_9" d="M41.6332 89.4076C41.144 88.8641 40.3507 88.8641 39.8615 89.4076L33.3656 96.6238C32.9437 97.0925 32.8878 97.8115 33.1936 98.3496C33.2325 98.4179 33.279 98.4816 33.3295 98.5432C33.3425 98.559 33.3516 98.5767 33.3656 98.5923C33.6043 98.8575 33.9155 98.9913 34.2284 98.9975C34.236 98.9977 34.2437 99 34.2513 99C34.5718 99 34.8924 98.864 35.1373 98.5923L41.6332 91.376C41.8166 91.1723 41.9314 90.9212 41.9771 90.6579C41.9924 90.5701 42 90.4813 42 90.3921C42.0003 90.0354 41.8781 89.679 41.6332 89.4076Z" fill="url(#paint8_linear_0_298)"/>
<path id="Vector_10" d="M92.5966 96.6257L85.3768 89.4045C85.2069 89.2346 85.0025 89.1241 84.7874 89.0603C84.5804 88.9991 84.3636 88.9827 84.1519 89.0194C83.8795 89.0671 83.6183 89.1936 83.408 89.404C82.864 89.9481 82.864 90.8296 83.408 91.3735L90.6278 98.5947C90.7094 98.6763 90.8 98.7415 90.8946 98.7985C91.4299 99.1221 92.1348 99.0572 92.5972 98.5947C92.8188 98.373 92.9453 98.0943 92.9859 97.806C93.0449 97.3881 92.9188 96.9482 92.5966 96.6257Z" fill="url(#paint9_linear_0_298)"/>
<path id="Vector_11" d="M35.1384 39.367C34.8938 39.1224 34.5731 39 34.2526 39C34.1726 39 34.0923 39.0076 34.0133 39.0229C33.7764 39.0688 33.5503 39.1831 33.367 39.3667C33.1224 39.6113 33 39.9321 33 40.2526C33 40.3326 33.0076 40.4128 33.0229 40.4918C33.0688 40.7288 33.1831 40.9548 33.3667 41.1382L39.8616 47.6333C39.8728 47.6444 39.886 47.6518 39.8977 47.6625C40.012 47.7686 40.1392 47.8527 40.2761 47.9083C40.4267 47.9695 40.5872 48 40.7474 48C41.0679 48 41.3887 47.8776 41.6333 47.633C41.8166 47.4496 41.9314 47.2234 41.9771 46.9867C41.9924 46.9077 42 46.8277 42 46.7474C42 46.4269 41.8776 46.1061 41.633 45.8616L35.1384 39.367Z" fill="url(#paint10_linear_0_298)"/>
<path id="Vector_12" d="M110 91.3934C109.335 92.8182 108.608 94.2062 107.819 95.5547C106.247 98.2615 104.445 100.813 102.434 103.181C100.332 105.663 98.0059 107.946 95.4906 110L58.663 72.7937C56.4457 70.554 56.4457 66.9228 58.663 64.683C58.7611 64.5838 58.8595 64.4907 58.9642 64.4013C61.0863 62.5329 64.257 62.5329 66.3794 64.4013C66.4843 64.4907 66.5824 64.5835 66.6805 64.683C66.7786 64.7823 66.877 64.8884 66.9622 64.9946H66.9653C67.0307 64.9978 67.0964 65.0013 67.1684 65.0045C67.2929 65.0143 67.4305 65.021 67.5777 65.0309C68.3506 65.0805 69.4087 65.1635 70.6368 65.276C71.0036 65.3091 71.3868 65.3457 71.7832 65.3854C72.068 65.415 72.3597 65.4417 72.6577 65.4748C72.9101 65.5012 73.1656 65.5279 73.4272 65.5543C73.6171 65.574 73.8104 65.5975 74.0037 65.6172C74.3117 65.6503 74.6195 65.6869 74.9306 65.7234C76.4112 65.8957 77.9439 66.091 79.4078 66.31C79.6077 66.3396 79.8073 66.3698 80.004 66.4026C80.0333 66.4058 80.0663 66.4093 80.0955 66.4159C80.3247 66.4525 80.551 66.4888 80.7736 66.5221C80.9961 66.5619 81.2158 66.5984 81.4321 66.6347C81.576 66.6611 81.7203 66.6846 81.8643 66.711C82.0837 66.7507 82.3031 66.7905 82.5194 66.8337C82.6275 66.8534 82.7356 66.8734 82.8403 66.8934C83.0629 66.9399 83.2757 66.9828 83.4856 67.026C83.551 67.0394 83.6135 67.0524 83.6758 67.0658C83.761 67.0855 83.8461 67.1058 83.9282 67.1221C83.9674 67.1287 84.0067 67.1386 84.046 67.1485C84.1673 67.1781 84.2884 67.2048 84.4028 67.2312C84.4846 67.2509 84.5632 67.2712 84.6386 67.2874C84.9432 67.3669 85.2283 67.443 85.4967 67.5193C85.559 67.539 85.6212 67.559 85.6803 67.5756C85.7296 67.5889 85.7752 67.6052 85.8211 67.6188C85.8899 67.642 85.9553 67.6652 86.021 67.6852C86.0439 67.6919 86.0669 67.6983 86.0898 67.7084C86.2209 67.7548 86.3422 67.7978 86.4567 67.8442C86.4664 67.8474 86.4762 67.8541 86.4894 67.8573C86.5516 67.8837 86.6138 67.9103 86.6729 67.9336C86.8137 67.9965 86.9382 68.0563 87.0498 68.1192C87.0991 68.1488 87.1413 68.1755 87.184 68.2019C87.3214 68.2913 87.4264 68.3809 87.4952 68.4703C87.5181 68.4935 87.5345 68.5202 87.5477 68.5431C87.5508 68.5498 87.5543 68.553 87.5543 68.5565C87.5706 68.5861 87.5835 68.6162 87.5904 68.649C87.6001 68.6786 87.6033 68.7088 87.6033 68.7384L110 91.3934Z" fill="url(#paint11_linear_0_298)"/>
<path id="Vector_13" d="M66.7299 73C64.67 73 63 71.209 63 69C63 66.791 64.67 65 66.7299 65C68.7898 65 88 66.791 88 69C88.0003 71.2093 68.7898 73 66.7299 73Z" fill="url(#paint12_linear_0_298)"/>
<path id="Vector_14" d="M67 65.2245C67 67.3095 65.209 69 63 69C60.791 69 59 67.3095 59 65.2245C59 63.1395 60.791 33 63 33C65.209 33.0003 67 63.1395 67 65.2245Z" fill="url(#paint13_linear_0_298)"/>
<path id="Vector_15" d="M62.5 74C65.5376 74 68 71.5376 68 68.5C68 65.4624 65.5376 63 62.5 63C59.4624 63 57 65.4624 57 68.5C57 71.5376 59.4624 74 62.5 74Z" fill="white"/>
<path id="Vector_16" d="M131.566 59.7389H125.522H125.242C120.85 29.3934 94.5895 6 62.9459 6C28.2372 6 0 34.1429 0 68.7356C0 83.0095 4.93982 96.9801 13.9094 108.073C22.7438 119 35.1246 126.742 48.7708 129.873C49.1443 129.959 49.5175 130 49.8854 130C52.1387 130 54.176 128.456 54.7033 126.174C55.3163 123.519 53.6546 120.872 50.9909 120.261C39.4968 117.623 29.0647 111.097 21.6155 101.885C13.949 92.403 9.89691 80.9406 9.89691 68.7361C9.89691 39.5822 33.6945 15.8642 62.9459 15.8642C89.1205 15.8642 110.925 34.8561 115.223 59.7392H110.003C106.061 59.7392 104.087 64.4894 106.874 67.2673L117.656 78.0131C119.384 79.7352 122.186 79.7352 123.914 78.0131L134.695 67.2673C137.483 64.4892 135.508 59.7389 131.566 59.7389Z" fill="url(#paint14_linear_0_298)"/>
</g>
<defs>
<linearGradient id="paint0_linear_0_298" x1="64.8224" y1="70.8255" x2="133.415" y2="139.418" gradientUnits="userSpaceOnUse">
<stop stop-color="white"/>
<stop offset="1" stop-color="#C3C3C3"/>
</linearGradient>
<linearGradient id="paint1_linear_0_298" x1="83.9389" y1="70.3474" x2="27.6967" y2="64.0969" gradientUnits="userSpaceOnUse">
<stop stop-color="#C3C3C3" stop-opacity="0"/>
<stop offset="0.267" stop-color="#A4A4A4" stop-opacity="0.267"/>
<stop offset="0.542" stop-color="#8B8B8B" stop-opacity="0.542"/>
<stop offset="0.794" stop-color="#7C7C7C" stop-opacity="0.794"/>
<stop offset="1" stop-color="#777777"/>
</linearGradient>
<linearGradient id="paint2_linear_0_298" x1="62.9986" y1="67.533" x2="62.9986" y2="76.4865" gradientUnits="userSpaceOnUse">
<stop stop-color="#F18D00"/>
<stop offset="1" stop-color="#ED7103"/>
</linearGradient>
<linearGradient id="paint3_linear_0_298" x1="59.952" y1="32.3729" x2="63.7752" y2="38.423" gradientUnits="userSpaceOnUse">
<stop stop-color="#FF7A7A"/>
<stop offset="1" stop-color="#F75900"/>
</linearGradient>
<linearGradient id="paint4_linear_0_298" x1="59.952" y1="103.821" x2="64.2272" y2="110.065" gradientUnits="userSpaceOnUse">
<stop stop-color="#FF7A7A"/>
<stop offset="1" stop-color="#F75900"/>
</linearGradient>
<linearGradient id="paint5_linear_0_298" x1="87.4585" y1="68.3432" x2="87.5356" y2="70.4569" gradientUnits="userSpaceOnUse">
<stop stop-color="#FF7A7A"/>
<stop offset="1" stop-color="#F75900"/>
</linearGradient>
<linearGradient id="paint6_linear_0_298" x1="16.8079" y1="68.3432" x2="16.8913" y2="70.4565" gradientUnits="userSpaceOnUse">
<stop stop-color="#FF7A7A"/>
<stop offset="1" stop-color="#F75900"/>
</linearGradient>
<linearGradient id="paint7_linear_0_298" x1="79.5066" y1="43.0297" x2="80.3915" y2="49.2534" gradientUnits="userSpaceOnUse">
<stop stop-color="#FF7A7A"/>
<stop offset="1" stop-color="#F75900"/>
</linearGradient>
<linearGradient id="paint8_linear_0_298" x1="29.8559" y1="93.4774" x2="31.0573" y2="100.322" gradientUnits="userSpaceOnUse">
<stop stop-color="#FF7A7A"/>
<stop offset="1" stop-color="#F75900"/>
</linearGradient>
<linearGradient id="paint9_linear_0_298" x1="79.5066" y1="93.4774" x2="80.594" y2="100.361" gradientUnits="userSpaceOnUse">
<stop stop-color="#FF7A7A"/>
<stop offset="1" stop-color="#F75900"/>
</linearGradient>
<linearGradient id="paint10_linear_0_298" x1="29.8559" y1="43.0297" x2="30.8346" y2="49.2246" gradientUnits="userSpaceOnUse">
<stop stop-color="#FF7A7A"/>
<stop offset="1" stop-color="#F75900"/>
</linearGradient>
<linearGradient id="paint11_linear_0_298" x1="83.3353" y1="80.9948" x2="60.1789" y2="55.8503" gradientUnits="userSpaceOnUse">
<stop stop-color="#C3C3C3" stop-opacity="0"/>
<stop offset="0.267" stop-color="#A4A4A4" stop-opacity="0.267"/>
<stop offset="0.542" stop-color="#8B8B8B" stop-opacity="0.542"/>
<stop offset="0.794" stop-color="#7C7C7C" stop-opacity="0.794"/>
<stop offset="1" stop-color="#777777"/>
</linearGradient>
<linearGradient id="paint12_linear_0_298" x1="80.982" y1="67.548" x2="0.359753" y2="74.9868" gradientUnits="userSpaceOnUse">
<stop stop-color="#FFB92D"/>
<stop offset="1" stop-color="#F59500"/>
</linearGradient>
<linearGradient id="paint13_linear_0_298" x1="71.0493" y1="84.3573" x2="78.7162" y2="115.003" gradientUnits="userSpaceOnUse">
<stop stop-color="#FFB92D"/>
<stop offset="1" stop-color="#F59500"/>
</linearGradient>
<linearGradient id="paint14_linear_0_298" x1="11.7692" y1="20.1826" x2="110.743" y2="117.049" gradientUnits="userSpaceOnUse">
<stop stop-color="#FFCD61"/>
<stop offset="1" stop-color="#FFAE00"/>
</linearGradient>
</defs>
</svg>
